HIERARCHY
ROOT Hips
{
  OFFSET 3.13124 94.3669 -3.18751
  CHANNELS  6 Xposition Yposition Zposition Zrotation Xrotation Yrotation
  JOINT LeftUpLeg
  {
    OFFSET 8.64259 1.95398 -2.38835
    CHANNELS 3 Zrotation Xrotation Yrotation
    JOINT LeftLeg
    {
      OFFSET 43.7702 0 0
      CHANNELS 3 Zrotation Xrotation Yrotation
      JOINT LeftFoot
      {
        OFFSET 40.6238 0 0
        CHANNELS 3 Zrotation Xrotation Yrotation
        JOINT LeftToeBase
        {
          OFFSET 12.7242 0 0
          CHANNELS 3 Zrotation Xrotation Yrotation
          End Site
          {
            OFFSET 0 0 0
          }
        }
      }
    }
  }
  JOINT RightUpLeg
  {
    OFFSET -8.2249 1.95398 -2.59336
    CHANNELS 3 Zrotation Xrotation Yrotation
    JOINT RightLeg
    {
      OFFSET 43.5653 0 0
      CHANNELS 3 Zrotation Xrotation Yrotation
      JOINT RightFoot
      {
        OFFSET 40.6238 0 0
        CHANNELS 3 Zrotation Xrotation Yrotation
        JOINT RightToeBase
        {
          OFFSET 12.7242 0 0
          CHANNELS 3 Zrotation Xrotation Yrotation
          End Site
          {
            OFFSET 0 0 0
          }
        }
      }
    }
  }
  JOINT Spine
  {
    OFFSET 0.165834 0.87714 6.61349
    CHANNELS 3 Zrotation Xrotation Yrotation
    JOINT Spine1
    {
      OFFSET 7.38962 1.71661e-005 0
      CHANNELS 3 Zrotation Xrotation Yrotation
      JOINT Spine2
      {
        OFFSET 11.9445 1.14441e-005 0
        CHANNELS 3 Zrotation Xrotation Yrotation
        JOINT Spine3
        {
          OFFSET 14.7254 4.19617e-005 0
          CHANNELS 3 Zrotation Xrotation Yrotation
          JOINT Spine4
          {
            OFFSET 10.9679 0 0
            CHANNELS 3 Zrotation Xrotation Yrotation
            JOINT RightShoulder
            {
              OFFSET 2.46616 -1.6653 3.69651
              CHANNELS 3 Zrotation Xrotation Yrotation
              JOINT RightArm
              {
                OFFSET 13.0012 0 0
                CHANNELS 3 Zrotation Xrotation Yrotation
                JOINT RightForeArm
                {
                  OFFSET 28.7848 1.52588e-005 0
                  CHANNELS 3 Zrotation Xrotation Yrotation
                  JOINT RightHand
                  {
                    OFFSET 26.5688 1.52588e-005 0
                    CHANNELS 3 Zrotation Xrotation Yrotation
                    End Site
                    {
                      OFFSET 0 0 0
                    }
                  }
                }
              }
            }
            JOINT LeftShoulder
            {
              OFFSET 2.38034 -1.29275 -3.75231
              CHANNELS 3 Zrotation Xrotation Yrotation
              JOINT LeftArm
              {
                OFFSET 16.3182 6.10352e-005 0
                CHANNELS 3 Zrotation Xrotation Yrotation
                JOINT LeftForeArm
                {
                  OFFSET 27.0901 0 0
                  CHANNELS 3 Zrotation Xrotation Yrotation
                  JOINT LeftHand
                  {
                    OFFSET 24.5451 1.52588e-005 0
                    CHANNELS 3 Zrotation Xrotation Yrotation
                    End Site
                    {
                      OFFSET 0 0 0
                    }
                  }
                }
              }
            }
            JOINT Neck
            {
              OFFSET 5.0226 -0.0266342 0
              CHANNELS 3 Zrotation Xrotation Yrotation
              JOINT Head
              {
                OFFSET 6.69363 2.86102e-005 0
                CHANNELS 3 Zrotation Xrotation Yrotation
                End Site
                {
                  OFFSET 0 0 0
                }
              }
            }
          }
        }
      }
    }
  }
}
MOTION
Frames:	7
Frame Time:	0.0333333
70.2206 92.1051 -57.2075 -84.8005 33.3184 -94.0068 -178.789 9.00457 80.2851 -20.7993 4.46619 -0.869776 63.6633 12.1898 6.95897 28.7808 4.24298e-006 1.20185e-005 179.857 32.6134 84.7348 -35.9814 3.03064 -0.0351473 58.6596 -0.87832 -0.358935 28.7808 1.61087e-005 3.55147e-005 0.428945 7.60404 -90.3588 11.6633 0.735582 -0.305519 -0.0074572 0.72138 -0.33757 -22.5442 0.793504 -0.0704295 -2.5316 0.793464 -0.0704457 84.6851 -45.6694 -110.37 17.6335 18.2178 -1.35825 50.5978 -21.8772 -121.829 35.7103 -4.16278 -17.7204 -103.631 -53.8466 60.3477 -22.6433 -13.4256 -1.80885 -38.7276 -32.8214 -60.1475 36.7194 -4.37066 -16.39 -26.1807 -1.72121 3.08609 -12.2345 -0.71491 -8.7624 
67.9302 92.1268 -59.1453 -85.5581 30.9908 -93.4005 -178.957 6.32446 80.5785 -20.6957 6.25794 -0.227837 64.2477 12.4248 7.0488 28.7808 4.24298e-006 1.20185e-005 179.26 31.7755 84.4824 -25.624 1.78176 0.0108222 59.3045 0.432563 0.465858 28.7808 1.61087e-005 3.55147e-005 0.403994 7.54168 -90.5256 11.7867 0.651319 -0.328295 0.115849 0.636503 -0.356929 -22.4206 0.71809 -0.115434 -2.40791 0.718091 -0.115448 85.8494 -45.9529 -108.43 18.3846 16.0963 2.70025 50.9835 -17.6553 -121.421 41.0145 -4.25909 -16.1891 -104.387 -53.6406 59.2128 -22.382 -13.6166 -1.73283 -41.7524 -33.3415 -62.4411 34.9919 -5.24139 -19.5252 -26.1727 -1.72018 3.87402 -12.0954 -0.590931 -9.41519 
65.4795 91.9685 -61.1028 -85.9232 28.4599 -93.6631 -179.244 3.96167 80.3785 -20.6887 8.23598 0.34723 64.5972 12.6553 7.15542 28.7808 4.24298e-006 1.20185e-005 178.51 31.1905 83.6398 -17.225 -2.01252 -0.154339 60.5766 0.666106 0.603042 28.7808 1.61087e-005 3.55147e-005 0.331794 7.45907 -90.5207 11.9503 0.498587 -0.0704368 0.279437 0.49504 -0.0923208 -22.2565 0.49682 0.0827345 -2.24384 0.496812 0.0827164 87.002 -46.8614 -106.32 18.937 13.4245 5.61663 51.4981 -12.2832 -119.599 45.6788 -4.28122 -15.0855 -103.993 -53.2408 59.6131 -22.2627 -13.6882 -2.06193 -43.17 -33.4521 -63.564 34.4824 -5.6884 -21.068 -25.6002 -1.42684 3.7263 -12.1586 -0.373084 -8.84916 
62.5957 91.5733 -63.2406 -86.8492 26.0076 -94.1151 -179.553 0.94198 79.9486 -21.097 10.5455 0.964429 65.2318 12.9251 7.23528 28.7808 4.24298e-006 1.20185e-005 178.267 32.09 82.315 -16.3128 -4.60715 -0.290936 63.3367 3.74706 2.29187 28.7808 1.61087e-005 3.55147e-005 0.210642 7.42144 -90.3709 12.0278 0.384794 0.207939 0.356934 0.393011 0.190931 -22.1784 0.302745 0.313124 -2.16572 0.302737 0.313117 87.9908 -47.3621 -104.619 19.9534 10.5597 8.3233 51.3707 -5.0192 -116.116 50.6854 -5.0837 -15.58 -103.733 -53.3415 60.0085 -22.007 -13.9118 -2.44864 -43.6816 -33.7365 -63.8023 34.0002 -5.86046 -21.7895 -25.1753 -1.1502 4.19883 -12.0713 -0.123991 -8.24346 
59.5926 91.1595 -65.4938 -87.8844 24.09 -94.1564 -179.662 -2.0259 80.1084 -22.1186 13.0486 1.82458 65.4251 13.1453 7.33368 28.7808 4.24298e-006 1.20185e-005 177.964 31.0669 81.5258 -15.9408 -7.82227 -0.465509 63.7473 3.20567 1.96 28.7808 1.61087e-005 3.55147e-005 0.17553 7.37488 -90.275 12.1217 0.402559 0.352441 0.450763 0.417808 0.33449 -22.0842 0.275756 0.456417 -2.07162 0.275731 0.456403 85.7617 -46.2445 -108.473 22.875 11.856 13.6732 49.4733 1.0071 -111.406 50.8039 -6.09906 -17.6623 -103.352 -53.4818 60.5918 -21.7694 -14.1435 -1.40929 -41.8038 -32.6033 -62.9946 32.1115 -5.08618 -20.3808 -24.9086 -0.848561 5.10617 -12.1053 0.192528 -7.59232 
56.3908 90.7001 -68.0461 -89.4401 22.6888 -93.4883 -179.473 -5.18394 80.9463 -24.148 14.8412 2.86917 65.2336 12.9846 7.25615 28.7808 4.24298e-006 1.20185e-005 177.844 28.0769 81.5489 -15.9872 -5.76947 -0.358456 60.0987 5.65223 3.69052 28.7808 1.61087e-005 3.55147e-005 0.180025 7.35603 -90.2344 12.16 0.476594 0.304109 0.489111 0.489519 0.282864 -22.0462 0.363029 0.433062 -2.03351 0.363025 0.433042 84.341 -44.6695 -111.288 24.9773 12.8365 16.2449 52.0033 7.64733 -104.779 49.9016 -4.71137 -14.9612 -103.183 -54.1364 61.0753 -21.536 -14.3931 -0.446369 -40.1874 -32.4248 -61.7313 31.8447 -4.89136 -19.8808 -24.9857 -0.415514 6.68169 -11.732 0.650264 -6.55085 
53.3055 90.1836 -70.3796 -90.3944 21.4725 -92.959 -179.698 -6.81604 81.3576 -27.3601 14.7612 4.10674 64.0533 12.5795 7.14681 28.7808 4.24298e-006 1.20185e-005 178.323 27.982 81.1434 -20.9911 -5.09548 -0.357028 52.7882 9.93753 7.35522 28.7808 1.61087e-005 3.55147e-005 0.197014 7.35161 -90.1786 12.1695 0.569772 0.236984 0.498666 0.579238 0.211179 -22.0371 0.474073 0.400699 -2.02445 0.474052 0.400678 84.3596 -44.0734 -111.47 25.8354 12.6496 14.5352 52.5586 16.1263 -92.7873 44.8022 -5.35788 -17.7673 -102.52 -54.838 62.2518 -21.2012 -14.7158 0.475569 -38.6127 -32.7521 -60.0942 30.7233 -4.65263 -19.6539 -23.607 0.257451 7.6769 -11.9503 1.15328 -4.35861 
